<!-- Generated by IcoMoon.io -->
<svg version="1.1" xmlns="http://www.w3.org/2000/svg" width="32" height="32" viewBox="0 0 32 32">
<title>close</title>
<path fill="#e5e5e5" d="M0 0h32v32h-32v-32z"></path>
<path fill="#fff" d="M-1834.667-417.778h2844.444v1820.444h-2844.444v-1820.444z"></path>
<path fill="#c4c4c4" d="M-1834.667-275.556h2844.444v1066.667h-2844.444v-1066.667z"></path>
<path fill="#000" d="M-1834.667-275.556h2844.444v1066.667h-2844.444v-1066.667z"></path>
<path fill="#2f303a" opacity="0.4" d="M-1834.667-275.556h2844.444v1066.667h-2844.444v-1066.667z"></path>
<path fill="#000" opacity="0.2" d="M-1834.667-417.778h2844.444v1820.444h-2844.444v-1820.444z"></path>
<path fill="#fff" d="M-881.778-17.778c0-3.927 3.184-7.111 7.111-7.111h924.444c3.927 0 7.111 3.184 7.111 7.111v1018.667c0 3.927-3.184 7.111-7.111 7.111h-924.444c-3.927 0-7.111-3.184-7.111-7.111v-1018.667z"></path>
<path fill="#fff" d="M42.667 16c0 14.728-11.939 26.667-26.667 26.667s-26.667-11.939-26.667-26.667c0-14.728 11.939-26.667 26.667-26.667s26.667 11.939 26.667 26.667z"></path>
<path fill="none" stroke="#000" stroke-linejoin="miter" stroke-linecap="butt" stroke-miterlimit="4" stroke-width="1.7778" d="M41.778 16c0 14.237-11.541 25.778-25.778 25.778s-25.778-11.541-25.778-25.778c0-14.237 11.541-25.778 25.778-25.778s25.778 11.541 25.778 25.778z"></path>
<path fill="#000" d="M26.667 7.303l-1.97-1.97-7.808 7.808-7.808-7.808-1.97 1.97 7.808 7.808-7.808 7.808 1.97 1.97 7.808-7.808 7.808 7.808 1.97-1.97-7.808-7.808 7.808-7.808z"></path>
</svg>
